<?xml version="1.0" encoding="utf-8"?>
<!-- Generator: Adobe Illustrator 25.2.3, SVG Export Plug-In . SVG Version: 6.00 Build 0)  -->
<svg version="1.1" id="Ebene_1" xmlns="http://www.w3.org/2000/svg" xmlns:xlink="http://www.w3.org/1999/xlink" x="0px" y="0px"
	 viewBox="0 0 180 36" style="enable-background:new 0 0 180 36;" xml:space="preserve">
<style type="text/css">
	.st0{fill-rule:evenodd;clip-rule:evenodd;fill:#ED232A;}
	.st1{fill-rule:evenodd;clip-rule:evenodd;fill:#292526;}
</style>
<g id="layer1" transform="translate(-275.41062,-437.10721)">
	<g id="g3375" transform="matrix(3.5754051,0,0,3.5754051,-705.41084,-1410.9642)">
		<path id="path3063" class="st0" d="M274.8,519.8l-0.5,0.8c0.4,0.4,0.9,0.6,1.4,0.6c1,0,1.6-0.6,1.6-1.4c0-0.8-0.4-1-1.1-1.2
			c-0.4-0.1-0.6-0.2-0.6-0.4c0-0.2,0.2-0.3,0.4-0.3c0.3,0,0.5,0.1,0.8,0.3l0.3-0.8c-0.4-0.2-0.8-0.4-1.2-0.4c-0.9,0-1.4,0.6-1.4,1.3
			c0,0.6,0.4,0.9,1.1,1.1c0.5,0.1,0.7,0.2,0.7,0.5c0,0.2-0.2,0.4-0.5,0.4C275.5,520.4,275.2,520.2,274.8,519.8L274.8,519.8z
			 M278.6,521.1h1.1V518h0.9v-1h-2.9v1h0.9V521.1z M280.4,521.1h1.1l0.2-0.7h1.6l0.2,0.7h1.1l-1.4-4.1h-1.4L280.4,521.1L280.4,521.1
			z M282,519.6l0.4-1.3c0-0.1,0.1-0.2,0.1-0.5c0.1,0.3,0.1,0.5,0.1,0.5l0.4,1.3H282z M286.1,520.2V518h0.2c0.8,0,1.3,0.3,1.3,1.1
			c0,0.8-0.4,1.1-1.3,1.1L286.1,520.2L286.1,520.2z M285,521.1h1.1c0.7,0,1.2,0,1.7-0.4c0.5-0.4,0.8-0.9,0.8-1.6
			c0-0.7-0.3-1.3-0.8-1.6c-0.5-0.4-1.1-0.4-1.9-0.4h-1V521.1L285,521.1z M289.9,521.1h1.1V518h0.9v-1H289v1h0.9V521.1z M295.3,517
			h-0.9l-0.5,1.9c-0.1,0.2-0.1,0.4-0.1,0.6c0-0.2-0.1-0.4-0.1-0.6l-0.5-1.9H292l1.1,4.1h1l0.5-1.7c0-0.2,0.1-0.3,0.1-0.5
			c0.1,0.3,0.1,0.4,0.1,0.5l0.5,1.7h1l1.1-4.1h-1.1L296,519c0,0.1-0.1,0.3-0.1,0.6c0,0,0-0.2-0.1-0.6L295.3,517L295.3,517z
			 M298,521.1h2.5v-0.9h-1.4v-0.7h1.3v-0.9h-1.3v-0.7h1.4V517H298V521.1L298,521.1z M302.3,519v-1.1h0.2c0.5,0,0.7,0.1,0.7,0.6
			c0,0.4-0.2,0.5-0.7,0.5H302.3L302.3,519z M301.2,521.1h1v-1.6l0.9,1.6h1.3l-1.1-1.6c0.6-0.1,0.9-0.5,0.9-1.2c0-0.4-0.2-0.8-0.5-1
			c-0.3-0.3-0.8-0.3-1.3-0.3h-1.2V521.1L301.2,521.1z M304.9,521.1h1.1v-1.8l1.3,1.8h1.4L307,519l1.5-2h-1.3l-1.3,1.8V517h-1.1
			V521.1z M309,521.1h2.5v-0.9h-1.4v-0.7h1.3v-0.9h-1.3v-0.7h1.4V517H309V521.1L309,521.1z"/>
		<path id="path3065" class="st1" d="M274.6,526.7h0.7v-2.1l1.6,2.1h0.9l-1.8-2.3l1.6-1.8h-0.8l-1.5,1.7v-1.7h-0.7V526.7"/>
		<path id="path3067" class="st1" d="M282,524.7c0-0.6-0.2-1.1-0.6-1.5c-0.4-0.4-0.9-0.6-1.5-0.6c-0.6,0-1.1,0.2-1.5,0.6
			c-0.4,0.4-0.6,0.9-0.6,1.5c0,0.6,0.2,1.1,0.6,1.5c0.4,0.4,1,0.6,1.5,0.6c0.6,0,1.1-0.2,1.5-0.6C281.8,525.8,282,525.3,282,524.7z
			 M281.3,524.7c0,0.4-0.2,0.8-0.4,1.1c-0.3,0.3-0.6,0.4-1,0.4c-0.4,0-0.8-0.2-1-0.4c-0.3-0.3-0.4-0.7-0.4-1.1s0.1-0.8,0.4-1.1
			c0.3-0.3,0.7-0.4,1-0.4c0.4,0,0.8,0.2,1,0.4C281.2,523.9,281.3,524.3,281.3,524.7"/>
		<path id="path3069" class="st1" d="M282.8,526.7h0.6v-2.8c0.1,0.2,0.2,0.3,0.4,0.5l2.6,2.5v-4.2h-0.6v2.8
			c-0.1-0.2-0.3-0.3-0.4-0.5l-2.6-2.5V526.7"/>
		<path id="path3071" class="st1" d="M287.1,525.9c0.1,0.6,0.6,0.9,1.3,0.9c0.8,0,1.3-0.5,1.3-1.3c0-0.6-0.3-0.9-1-1.2
			c-0.5-0.2-0.8-0.3-0.8-0.7c0-0.3,0.2-0.5,0.6-0.5c0.3,0,0.4,0.1,0.6,0.4l0.5-0.3c-0.2-0.4-0.6-0.7-1.2-0.7c-0.7,0-1.2,0.5-1.2,1.1
			c0,0.6,0.4,0.9,1.1,1.2c0.4,0.2,0.7,0.3,0.7,0.7c0,0.4-0.2,0.6-0.6,0.6c-0.4,0-0.7-0.2-0.8-0.6L287.1,525.9"/>
		<path id="path3073" class="st1" d="M291.8,523.2h1.1v-0.6H290v0.6h1.1v3.5h0.7V523.2"/>
		<path id="path3075" class="st1" d="M295.6,526.7h0.7l-2-4.2l-2,4.2h0.7l0.5-1h1.6L295.6,526.7L295.6,526.7z M293.8,525.1l0.4-0.9
			c0-0.1,0.1-0.3,0.1-0.5c0.1,0.2,0.1,0.4,0.2,0.5l0.4,0.9H293.8"/>
		<path id="path3077" class="st1" d="M296.7,526.7h0.6v-2.8c0.1,0.2,0.2,0.3,0.4,0.5l2.6,2.5v-4.2h-0.6v2.8
			c-0.1-0.2-0.3-0.3-0.4-0.5l-2.6-2.5V526.7"/>
		<path id="path3079" class="st1" d="M300.8,526.7h3.1v-0.6h-2.1l2-3.5h-2.7v0.6h1.7L300.8,526.7"/>
		<path id="path3081" class="st1" d="M313,523.5l-0.4,0.8l4.9,0c0.9,0,1.7-0.1,2.2-0.9c0.5-0.9,0.2-1.9-0.7-2.3
			c1.3,0.1,1.7,2,0.9,2.9c-0.5,0.5-1.1,0.7-1.9,0.7c0,0-5.6,0-5.6,0l-0.4,0.8l6.2,0c2.6,0,3.9-2.9,1.3-4.3c1.1,0.1,2,1.5,1.8,2.5
			c-0.2,1.1-0.9,1.7-1.9,2c-0.4,0.1-0.8,0.2-1.2,0.2l-1.2,0c-1.2,0-3.4,0-5.2,0l-0.4,0.8l6.9,0c1.6,0,3-0.7,3.5-2.3
			c0.7-2-1.1-3.6-3-3.5c0.9,0.4,0.7,1.8-0.1,2.2c-0.6,0.3-1.2,0.2-1.7,0.2L313,523.5"/>
		<path id="path3083" class="st1" d="M323.2,520.5l0.4-0.8h-4.9c-0.9,0-1.7,0.1-2.2,0.9c-0.5,0.9-0.2,1.7,0.8,2.1
			c-1.3-0.1-1.8-1.8-0.9-2.7c0.5-0.5,1.1-0.7,1.8-0.7c0,0,5.6,0,5.6,0l0.4-0.8l-6.2,0c-2.6,0-3.8,2.8-1.2,4.2
			c-1.1-0.1-2-1.4-1.8-2.3c0.2-1.1,0.9-1.7,1.9-2.1c0.4-0.1,0.8-0.2,1.2-0.2c2.1,0,4.3,0,6.4,0l0.4-0.8h-6.9c-1.6,0-3,0.7-3.5,2.3
			c-0.6,2,1.2,3.4,3.1,3.2c-0.8-0.4-0.7-1.6,0.1-2c0.6-0.3,1.2-0.2,1.7-0.2L323.2,520.5"/>
	</g>
</g>
</svg>
