<svg version="1.1" id="loading-spinner-svg" class="loading-spinner" xmlns="http://www.w3.org/2000/svg"
        xmlns:xlink="http://www.w3.org/1999/xlink" x="0px" y="0px" viewBox="0 0 200 200">
  <path class="loop-normal" stroke="primary" fill="none" stroke-width="10"
    d="M72.4,30.2C44.7,41.2,25,68.3,25,100c0,41.4,33.6,75,75,75c41.4,0,75-33.6,75-75c0-32.2-20.2-59.6-48.7-70.3" />
  <g>
    <path class="socket" d="M135.3,33.9c-3.4,8.5-13,12.6-21.4,9.2l12.2-30.6C134.6,15.8,138.7,25.4,135.3,33.9z">
    </path>
  </g>
  <g>
    <path class="plug"
      d="M81,40.1l16.6-5.2l-1.7-5.5l-16.6,5.2l-3-9.4l16.6-5.2l-1.7-5.5l-16.6,5.2l-1.9-6.1c-9.2,2.9-14.2,12.6-11.3,21.8s12.6,14.2,21.8,11.3L81,40.1z">
    </path>
  </g>
</svg> 